<?xml version="1.0" encoding="iso-8859-1"?>
<!-- Uploaded to: SVG Repo, www.svgrepo.com, Generator: SVG Repo Mixer Tools -->
<svg fill="#000000" height="800px" width="800px" version="1.1" id="Layer_1" xmlns="http://www.w3.org/2000/svg" xmlns:xlink="http://www.w3.org/1999/xlink" 
	 viewBox="0 0 512 512" xml:space="preserve">
<g>
	<g>
		<path d="M362.667,149.333h-21.333C326.667,149.333,320,136.095,320,64c0-35.355-28.645-64-64-64s-64,28.645-64,64
			c0,72.095-6.667,85.333-21.333,85.333h-21.333c-23.558,0-42.667,19.109-42.667,42.667v42.667c0,11.782,9.551,21.333,21.333,21.333
			v192c0,35.355,28.645,64,64,64h128c35.355,0,64-28.645,64-64V256c11.782,0,21.333-9.551,21.333-21.333V192
			C405.333,168.442,386.225,149.333,362.667,149.333z M234.667,64c0-11.791,9.542-21.333,21.333-21.333
			c11.791,0,21.333,9.542,21.333,21.333c0,37.211,2.876,65.183,9.312,85.333h-61.291C231.791,129.183,234.667,101.211,234.667,64z
			 M149.333,192h21.333h170.667h21.333v21.333H149.333V192z M341.333,448c0,11.791-9.542,21.333-21.333,21.333H192
			c-11.791,0-21.333-9.542-21.333-21.333V256h170.667V448z"/>
	</g>
</g>
</svg>